<?xml version="1.0" encoding="UTF-8" standalone="no"?>
<!DOCTYPE svg PUBLIC "-//W3C//DTD SVG 1.1//EN"
 "http://www.w3.org/Graphics/SVG/1.1/DTD/svg11.dtd">
<!-- Generated by graphviz version 2.47.0 (20210316.0004)
 -->
<!-- Title: dependencies Pages: 1 -->
<svg width="2410pt" height="284pt"
 viewBox="0.00 0.00 2410.00 284.00" xmlns="http://www.w3.org/2000/svg" xmlns:xlink="http://www.w3.org/1999/xlink">
<g id="graph0" class="graph" transform="scale(1 1) rotate(0) translate(4 280)">
<title>dependencies</title>
<polygon fill="white" stroke="transparent" points="-4,4 -4,-280 2406,-280 2406,4 -4,4"/>
<text text-anchor="start" x="1180.01" y="-42.4" font-family="Times-12" font-weight="bold" font-size="14.00">Legend</text>
<polygon fill="#ffffb3" stroke="transparent" points="967,-10 967,-30 987,-30 987,-10 967,-10"/>
<text text-anchor="start" x="990.63" y="-15.4" font-family="Times-12" font-size="14.00"> &#160;Declarations</text>
<polygon fill="#8dd3c7" stroke="transparent" points="1080,-10 1080,-30 1100,-30 1100,-10 1080,-10"/>
<text text-anchor="start" x="1103.73" y="-15.4" font-family="Times-12" font-size="14.00"> &#160;Module</text>
<polygon fill="#80b1d3" stroke="transparent" points="1166,-10 1166,-30 1186,-30 1186,-10 1166,-10"/>
<text text-anchor="start" x="1189.78" y="-15.4" font-family="Times-12" font-size="14.00"> &#160;Bootstrap</text>
<polygon fill="#fdb462" stroke="transparent" points="1263,-10 1263,-30 1283,-30 1283,-10 1263,-10"/>
<text text-anchor="start" x="1286.67" y="-15.4" font-family="Times-12" font-size="14.00"> &#160;Providers</text>
<polygon fill="#fb8072" stroke="transparent" points="1359,-10 1359,-30 1379,-30 1379,-10 1359,-10"/>
<text text-anchor="start" x="1382.73" y="-15.4" font-family="Times-12" font-size="14.00"> &#160;Exports</text>
<g id="clust1" class="cluster">
<title>cluster_AppModule</title>
<polygon fill="none" stroke="black" stroke-dasharray="1,5" points="8,-70 8,-268 2394,-268 2394,-70 8,-70"/>
</g>
<g id="clust19" class="cluster">
<title>cluster_AppModule_providers</title>
<polygon fill="none" stroke="black" points="2170,-78 2170,-130 2386,-130 2386,-78 2170,-78"/>
</g>
<g id="clust18" class="cluster">
<title>cluster_AppModule_bootstrap</title>
<polygon fill="none" stroke="black" points="1081,-208 1081,-260 1205,-260 1205,-208 1081,-208"/>
</g>
<g id="clust16" class="cluster">
<title>cluster_AppModule_imports</title>
<polygon fill="none" stroke="black" points="2018,-78 2018,-130 2162,-130 2162,-78 2018,-78"/>
</g>
<g id="clust2" class="cluster">
<title>cluster_AppModule_declarations</title>
<polygon fill="none" stroke="black" points="16,-78 16,-130 2010,-130 2010,-78 16,-78"/>
</g>
<!-- AppComponent -->
<g id="node1" class="node">
<title>AppComponent</title>
<polygon fill="#ffffb3" stroke="black" points="2001.94,-122 1896.06,-122 1896.06,-86 2001.94,-86 2001.94,-122"/>
<text text-anchor="middle" x="1949" y="-99.8" font-family="Times,serif" font-size="14.00">AppComponent</text>
</g>
<!-- AppModule -->
<g id="node14" class="node">
<title>AppModule</title>
<polygon fill="#8dd3c7" stroke="black" points="1184.66,-187 1181.66,-191 1160.66,-191 1157.66,-187 1101.34,-187 1101.34,-151 1184.66,-151 1184.66,-187"/>
<text text-anchor="middle" x="1143" y="-164.8" font-family="Times,serif" font-size="14.00">AppModule</text>
</g>
<!-- AppComponent&#45;&gt;AppModule -->
<g id="edge1" class="edge">
<title>AppComponent&#45;&gt;AppModule</title>
<path fill="none" stroke="black" d="M1949,-122.03C1949,-142.77 1949,-174 1949,-174 1949,-174 1194.92,-174 1194.92,-174"/>
<polygon fill="black" stroke="black" points="1194.92,-170.5 1184.92,-174 1194.92,-177.5 1194.92,-170.5"/>
</g>
<!-- CaptureformComponent -->
<g id="node2" class="node">
<title>CaptureformComponent</title>
<polygon fill="#ffffb3" stroke="black" points="1878.36,-122 1725.64,-122 1725.64,-86 1878.36,-86 1878.36,-122"/>
<text text-anchor="middle" x="1802" y="-99.8" font-family="Times,serif" font-size="14.00">CaptureformComponent</text>
</g>
<!-- CaptureformComponent&#45;&gt;AppModule -->
<g id="edge2" class="edge">
<title>CaptureformComponent&#45;&gt;AppModule</title>
<path fill="none" stroke="black" d="M1802,-122.11C1802,-141.34 1802,-169 1802,-169 1802,-169 1194.72,-169 1194.72,-169"/>
<polygon fill="black" stroke="black" points="1194.72,-165.5 1184.72,-169 1194.72,-172.5 1194.72,-165.5"/>
</g>
<!-- ContactformComponent -->
<g id="node3" class="node">
<title>ContactformComponent</title>
<polygon fill="#ffffb3" stroke="black" points="1708.09,-122 1555.91,-122 1555.91,-86 1708.09,-86 1708.09,-122"/>
<text text-anchor="middle" x="1632" y="-99.8" font-family="Times,serif" font-size="14.00">ContactformComponent</text>
</g>
<!-- ContactformComponent&#45;&gt;AppModule -->
<g id="edge3" class="edge">
<title>ContactformComponent&#45;&gt;AppModule</title>
<path fill="none" stroke="black" d="M1632,-122.3C1632,-140.27 1632,-165 1632,-165 1632,-165 1194.69,-165 1194.69,-165"/>
<polygon fill="black" stroke="black" points="1194.69,-161.5 1184.69,-165 1194.69,-168.5 1194.69,-161.5"/>
</g>
<!-- ContacttableComponent -->
<g id="node4" class="node">
<title>ContacttableComponent</title>
<polygon fill="#ffffb3" stroke="black" points="1538.09,-122 1385.91,-122 1385.91,-86 1538.09,-86 1538.09,-122"/>
<text text-anchor="middle" x="1462" y="-99.8" font-family="Times,serif" font-size="14.00">ContacttableComponent</text>
</g>
<!-- ContacttableComponent&#45;&gt;AppModule -->
<g id="edge4" class="edge">
<title>ContacttableComponent&#45;&gt;AppModule</title>
<path fill="none" stroke="black" d="M1462,-122.03C1462,-138.4 1462,-160 1462,-160 1462,-160 1194.7,-160 1194.7,-160"/>
<polygon fill="black" stroke="black" points="1194.7,-156.5 1184.7,-160 1194.7,-163.5 1194.7,-156.5"/>
</g>
<!-- CustomerComponent -->
<g id="node5" class="node">
<title>CustomerComponent</title>
<polygon fill="#ffffb3" stroke="black" points="1367.77,-122 1232.23,-122 1232.23,-86 1367.77,-86 1367.77,-122"/>
<text text-anchor="middle" x="1300" y="-99.8" font-family="Times,serif" font-size="14.00">CustomerComponent</text>
</g>
<!-- CustomerComponent&#45;&gt;AppModule -->
<g id="edge5" class="edge">
<title>CustomerComponent&#45;&gt;AppModule</title>
<path fill="none" stroke="black" d="M1300,-122.19C1300,-137.18 1300,-156 1300,-156 1300,-156 1194.66,-156 1194.66,-156"/>
<polygon fill="black" stroke="black" points="1194.66,-152.5 1184.66,-156 1194.66,-159.5 1194.66,-152.5"/>
</g>
<!-- DashboardComponent -->
<g id="node6" class="node">
<title>DashboardComponent</title>
<polygon fill="#ffffb3" stroke="black" points="1213.97,-122 1072.03,-122 1072.03,-86 1213.97,-86 1213.97,-122"/>
<text text-anchor="middle" x="1143" y="-99.8" font-family="Times,serif" font-size="14.00">DashboardComponent</text>
</g>
<!-- DashboardComponent&#45;&gt;AppModule -->
<g id="edge6" class="edge">
<title>DashboardComponent&#45;&gt;AppModule</title>
<path fill="none" stroke="black" d="M1143,-122.11C1143,-122.11 1143,-140.99 1143,-140.99"/>
<polygon fill="black" stroke="black" points="1139.5,-140.99 1143,-150.99 1146.5,-140.99 1139.5,-140.99"/>
</g>
<!-- LeaddetailsComponent -->
<g id="node7" class="node">
<title>LeaddetailsComponent</title>
<polygon fill="#ffffb3" stroke="black" points="1053.86,-122 908.14,-122 908.14,-86 1053.86,-86 1053.86,-122"/>
<text text-anchor="middle" x="981" y="-99.8" font-family="Times,serif" font-size="14.00">LeaddetailsComponent</text>
</g>
<!-- LeaddetailsComponent&#45;&gt;AppModule -->
<g id="edge7" class="edge">
<title>LeaddetailsComponent&#45;&gt;AppModule</title>
<path fill="none" stroke="black" d="M981,-122.19C981,-137.18 981,-156 981,-156 981,-156 1091.28,-156 1091.28,-156"/>
<polygon fill="black" stroke="black" points="1091.28,-159.5 1101.28,-156 1091.28,-152.5 1091.28,-159.5"/>
</g>
<!-- LeadformpageComponent -->
<g id="node8" class="node">
<title>LeadformpageComponent</title>
<polygon fill="#ffffb3" stroke="black" points="890.46,-122 727.54,-122 727.54,-86 890.46,-86 890.46,-122"/>
<text text-anchor="middle" x="809" y="-99.8" font-family="Times,serif" font-size="14.00">LeadformpageComponent</text>
</g>
<!-- LeadformpageComponent&#45;&gt;AppModule -->
<g id="edge8" class="edge">
<title>LeadformpageComponent&#45;&gt;AppModule</title>
<path fill="none" stroke="black" d="M809,-122.03C809,-138.4 809,-160 809,-160 809,-160 1091.04,-160 1091.04,-160"/>
<polygon fill="black" stroke="black" points="1091.04,-163.5 1101.04,-160 1091.04,-156.5 1091.04,-163.5"/>
</g>
<!-- LoginComponent -->
<g id="node9" class="node">
<title>LoginComponent</title>
<polygon fill="#ffffb3" stroke="black" points="709.28,-122 594.72,-122 594.72,-86 709.28,-86 709.28,-122"/>
<text text-anchor="middle" x="652" y="-99.8" font-family="Times,serif" font-size="14.00">LoginComponent</text>
</g>
<!-- LoginComponent&#45;&gt;AppModule -->
<g id="edge9" class="edge">
<title>LoginComponent&#45;&gt;AppModule</title>
<path fill="none" stroke="black" d="M652,-122.3C652,-140.27 652,-165 652,-165 652,-165 1091.14,-165 1091.14,-165"/>
<polygon fill="black" stroke="black" points="1091.14,-168.5 1101.14,-165 1091.14,-161.5 1091.14,-168.5"/>
</g>
<!-- NavbarComponent -->
<g id="node10" class="node">
<title>NavbarComponent</title>
<polygon fill="#ffffb3" stroke="black" points="576.03,-122 453.97,-122 453.97,-86 576.03,-86 576.03,-122"/>
<text text-anchor="middle" x="515" y="-99.8" font-family="Times,serif" font-size="14.00">NavbarComponent</text>
</g>
<!-- NavbarComponent&#45;&gt;AppModule -->
<g id="edge10" class="edge">
<title>NavbarComponent&#45;&gt;AppModule</title>
<path fill="none" stroke="black" d="M515,-122.11C515,-141.34 515,-169 515,-169 515,-169 1091.31,-169 1091.31,-169"/>
<polygon fill="black" stroke="black" points="1091.31,-172.5 1101.31,-169 1091.31,-165.5 1091.31,-172.5"/>
</g>
<!-- PipelineComponent -->
<g id="node11" class="node">
<title>PipelineComponent</title>
<polygon fill="#ffffb3" stroke="black" points="435.72,-122 308.28,-122 308.28,-86 435.72,-86 435.72,-122"/>
<text text-anchor="middle" x="372" y="-99.8" font-family="Times,serif" font-size="14.00">PipelineComponent</text>
</g>
<!-- PipelineComponent&#45;&gt;AppModule -->
<g id="edge11" class="edge">
<title>PipelineComponent&#45;&gt;AppModule</title>
<path fill="none" stroke="black" d="M372,-122.03C372,-142.77 372,-174 372,-174 372,-174 1091.27,-174 1091.27,-174"/>
<polygon fill="black" stroke="black" points="1091.27,-177.5 1101.27,-174 1091.27,-170.5 1091.27,-177.5"/>
</g>
<!-- RegisterComponent -->
<g id="node12" class="node">
<title>RegisterComponent</title>
<polygon fill="#ffffb3" stroke="black" points="289.98,-122 162.02,-122 162.02,-86 289.98,-86 289.98,-122"/>
<text text-anchor="middle" x="226" y="-99.8" font-family="Times,serif" font-size="14.00">RegisterComponent</text>
</g>
<!-- RegisterComponent&#45;&gt;AppModule -->
<g id="edge12" class="edge">
<title>RegisterComponent&#45;&gt;AppModule</title>
<path fill="none" stroke="black" d="M226,-122.29C226,-144.21 226,-178 226,-178 226,-178 1091.22,-178 1091.22,-178"/>
<polygon fill="black" stroke="black" points="1091.22,-181.5 1101.22,-178 1091.22,-174.5 1091.22,-181.5"/>
</g>
<!-- ReportComponent -->
<g id="node13" class="node">
<title>ReportComponent</title>
<polygon fill="#ffffb3" stroke="black" points="143.94,-122 24.06,-122 24.06,-86 143.94,-86 143.94,-122"/>
<text text-anchor="middle" x="84" y="-99.8" font-family="Times,serif" font-size="14.00">ReportComponent</text>
</g>
<!-- ReportComponent&#45;&gt;AppModule -->
<g id="edge13" class="edge">
<title>ReportComponent&#45;&gt;AppModule</title>
<path fill="none" stroke="black" d="M84,-122.32C84,-145.66 84,-183 84,-183 84,-183 1091.16,-183 1091.16,-183"/>
<polygon fill="black" stroke="black" points="1091.16,-186.5 1101.16,-183 1091.16,-179.5 1091.16,-186.5"/>
</g>
<!-- AppComponent  -->
<g id="node16" class="node">
<title>AppComponent </title>
<polygon fill="#80b1d3" stroke="black" points="1197.44,-252 1088.56,-252 1088.56,-216 1197.44,-216 1197.44,-252"/>
<text text-anchor="middle" x="1143" y="-229.8" font-family="Times,serif" font-size="14.00">AppComponent </text>
</g>
<!-- AppModule&#45;&gt;AppComponent  -->
<g id="edge15" class="edge">
<title>AppModule&#45;&gt;AppComponent </title>
<path fill="none" stroke="black" stroke-dasharray="1,5" d="M1143,-187.11C1143,-187.11 1143,-205.99 1143,-205.99"/>
<polygon fill="black" stroke="black" points="1139.5,-205.99 1143,-215.99 1146.5,-205.99 1139.5,-205.99"/>
</g>
<!-- AppRoutingModule -->
<g id="node15" class="node">
<title>AppRoutingModule</title>
<polygon fill="#8dd3c7" stroke="black" points="2154.27,-122 2151.27,-126 2130.27,-126 2127.27,-122 2025.73,-122 2025.73,-86 2154.27,-86 2154.27,-122"/>
<text text-anchor="middle" x="2090" y="-99.8" font-family="Times,serif" font-size="14.00">AppRoutingModule</text>
</g>
<!-- AppRoutingModule&#45;&gt;AppModule -->
<g id="edge14" class="edge">
<title>AppRoutingModule&#45;&gt;AppModule</title>
<path fill="none" stroke="black" d="M2090,-122.29C2090,-144.21 2090,-178 2090,-178 2090,-178 1194.91,-178 1194.91,-178"/>
<polygon fill="black" stroke="black" points="1194.91,-174.5 1184.91,-178 1194.91,-181.5 1194.91,-174.5"/>
</g>
<!-- HttpInterceptorService -->
<g id="node17" class="node">
<title>HttpInterceptorService</title>
<ellipse fill="#fdb462" stroke="black" cx="2278" cy="-104" rx="99.53" ry="18"/>
<text text-anchor="middle" x="2278" y="-99.8" font-family="Times,serif" font-size="14.00">HttpInterceptorService</text>
</g>
<!-- HttpInterceptorService&#45;&gt;AppModule -->
<g id="edge16" class="edge">
<title>HttpInterceptorService&#45;&gt;AppModule</title>
<path fill="none" stroke="black" d="M2278,-122.32C2278,-145.66 2278,-183 2278,-183 2278,-183 1194.74,-183 1194.74,-183"/>
<polygon fill="black" stroke="black" points="1194.74,-179.5 1184.74,-183 1194.74,-186.5 1194.74,-179.5"/>
</g>
</g>
</svg>
